<svg xmlns="http://www.w3.org/2000/svg" width="16.693" height="13.215" viewBox="0 0 16.693 13.215">
  <g id="next" transform="translate(0 -53.333)">
    <path id="Path_5" data-name="Path 5" d="M16.666,60.069a.348.348,0,0,0-.076-.379l-6.26-6.26a.348.348,0,0,0-.492.492l5.667,5.667H.348a.348.348,0,0,0,0,.7H15.505L9.84,65.95a.348.348,0,1,0,.483.5l.009-.009,6.26-6.26A.349.349,0,0,0,16.666,60.069Z" fill="#2196f3"/>
    <path id="Path_6" data-name="Path 6" d="M299,66.565a.348.348,0,0,1-.246-.594l6.014-6.014-6.014-6.014a.348.348,0,0,1,.492-.492l6.26,6.26a.348.348,0,0,1,0,.492l-6.26,6.26A.348.348,0,0,1,299,66.565Z" transform="translate(-288.91 -0.022)"/>
    <path id="Path_7" data-name="Path 7" d="M16.345,245.909h-16a.348.348,0,1,1,0-.7h16a.348.348,0,1,1,0,.7Z" transform="translate(0 -185.624)"/>
  </g>
</svg>
