<svg id="_5904994861579060818" data-name="5904994861579060818" xmlns="http://www.w3.org/2000/svg" width="24" height="24" viewBox="0 0 24 24">
  <g id="Group_84" data-name="Group 84" transform="translate(13.36 19.313)">
    <g id="Group_83" data-name="Group 83">
      <path id="Path_49" data-name="Path 49" d="M285.8,412.137a.469.469,0,1,0,.137.331A.472.472,0,0,0,285.8,412.137Z" transform="translate(-285 -412)"/>
    </g>
  </g>
  <g id="Group_86" data-name="Group 86" transform="translate(8.504 16.031)">
    <g id="Group_85" data-name="Group 85">
      <path id="Path_50" data-name="Path 50" d="M182.22,342.137a.469.469,0,1,0,.137.331A.472.472,0,0,0,182.22,342.137Z" transform="translate(-181.42 -342)"/>
    </g>
  </g>
  <g id="Group_88" data-name="Group 88" transform="translate(0 0)">
    <g id="Group_87" data-name="Group 87">
      <path id="Path_51" data-name="Path 51" d="M22.5,21a.923.923,0,0,0-.922.922.469.469,0,0,0,.937.016.562.562,0,0,1-.015,1.125h-.3a1.3,1.3,0,0,1-.923-.382l-1.257-1.257a4.519,4.519,0,0,0,1.863-2.36l1.507-4.413a1.78,1.78,0,0,0-1.175-3.119H12.281a.468.468,0,0,0,.188-.375v-.234a.469.469,0,0,0-.938,0v.234a.468.468,0,0,0,.188.375H1.969V2.578A1.643,1.643,0,0,1,3.609.938H9.891A1.643,1.643,0,0,1,11.477,2.16,2.722,2.722,0,0,0,8.906,4.875a.469.469,0,0,0,.469.469h5.25a.469.469,0,0,0,.469-.469,2.721,2.721,0,0,0-2.66-2.717A2.582,2.582,0,0,0,9.891,0H3.609A2.581,2.581,0,0,0,1.031,2.578V11.7A1.779,1.779,0,0,0,.607,14.65l1.507,4.413a4.519,4.519,0,0,0,1.863,2.36L2.72,22.68a1.3,1.3,0,0,1-.923.382H1.5a.563.563,0,0,1-.015-1.125.469.469,0,0,0,.937-.016A.923.923,0,0,0,1.5,21a1.5,1.5,0,0,0,0,3h.3a2.229,2.229,0,0,0,1.586-.657l1.484-1.484a4.518,4.518,0,0,0,1.529.266H17.6a4.518,4.518,0,0,0,1.529-.266l1.484,1.484A2.229,2.229,0,0,0,22.2,24h.3a1.5,1.5,0,1,0,0-3ZM12.375,3.094a1.784,1.784,0,0,1,1.719,1.313H9.906a1.784,1.784,0,0,1,1.719-1.313ZM.938,13.313a.845.845,0,0,1,.844-.844H22.219a.844.844,0,1,1,0,1.688H1.781A.845.845,0,0,1,.938,13.313ZM17.6,21.188H6.4A3.586,3.586,0,0,1,3,18.76l-.612-1.791H7.105a.469.469,0,1,0,0-.938H2.069l-.32-.938h20.5L21,18.76a3.594,3.594,0,0,1-.243.553H15.7a.469.469,0,0,0,0,.938h4.327A3.584,3.584,0,0,1,17.6,21.188Z" transform="translate(0 0)"/>
    </g>
  </g>
  <g id="Group_90" data-name="Group 90" transform="translate(13.5 8.746)">
    <g id="Group_89" data-name="Group 89">
      <path id="Path_52" data-name="Path 52" d="M288.971,187.192l-.047-.23a.469.469,0,1,0-.919.187l.047.23a.469.469,0,1,0,.919-.187Z" transform="translate(-287.996 -186.588)"/>
    </g>
  </g>
  <g id="Group_92" data-name="Group 92" transform="translate(13.172 7.139)">
    <g id="Group_91" data-name="Group 91">
      <path id="Path_53" data-name="Path 53" d="M281.98,152.9l-.047-.23a.469.469,0,1,0-.919.187l.047.23a.469.469,0,1,0,.919-.187Z" transform="translate(-281.006 -152.292)"/>
    </g>
  </g>
  <g id="Group_94" data-name="Group 94" transform="translate(12.845 5.531)">
    <g id="Group_93" data-name="Group 93">
      <path id="Path_54" data-name="Path 54" d="M274.989,118.605l-.047-.23a.469.469,0,0,0-.919.187l.047.23a.469.469,0,0,0,.459.375.477.477,0,0,0,.094-.01A.469.469,0,0,0,274.989,118.605Z" transform="translate(-274.014 -118)"/>
    </g>
  </g>
  <g id="Group_96" data-name="Group 96" transform="translate(13.828 10.354)">
    <g id="Group_95" data-name="Group 95">
      <path id="Path_55" data-name="Path 55" d="M295.963,221.488l-.047-.23a.469.469,0,1,0-.919.187l.047.23a.469.469,0,1,0,.919-.187Z" transform="translate(-294.988 -220.883)"/>
    </g>
  </g>
  <g id="Group_98" data-name="Group 98" transform="translate(11.531 8.813)">
    <g id="Group_97" data-name="Group 97">
      <path id="Path_56" data-name="Path 56" d="M246.469,188a.469.469,0,0,0-.469.469v.234a.469.469,0,0,0,.938,0v-.234A.469.469,0,0,0,246.469,188Z" transform="translate(-246 -188)"/>
    </g>
  </g>
  <g id="Group_100" data-name="Group 100" transform="translate(11.531 5.531)">
    <g id="Group_99" data-name="Group 99">
      <path id="Path_57" data-name="Path 57" d="M246.469,118a.469.469,0,0,0-.469.469v.234a.469.469,0,1,0,.938,0v-.234A.469.469,0,0,0,246.469,118Z" transform="translate(-246 -118)"/>
    </g>
  </g>
  <g id="Group_102" data-name="Group 102" transform="translate(11.531 7.172)">
    <g id="Group_101" data-name="Group 101">
      <path id="Path_58" data-name="Path 58" d="M246.469,153a.469.469,0,0,0-.469.469v.234a.469.469,0,0,0,.938,0v-.234A.469.469,0,0,0,246.469,153Z" transform="translate(-246 -153)"/>
    </g>
  </g>
  <g id="Group_104" data-name="Group 104" transform="translate(10.171 5.531)">
    <g id="Group_103" data-name="Group 103">
      <path id="Path_59" data-name="Path 59" d="M217.594,118.007a.469.469,0,0,0-.553.366l-.047.23a.469.469,0,1,0,.919.187l.047-.23A.469.469,0,0,0,217.594,118.007Z" transform="translate(-216.984 -117.998)"/>
    </g>
  </g>
  <g id="Group_106" data-name="Group 106" transform="translate(9.844 7.139)">
    <g id="Group_105" data-name="Group 105">
      <path id="Path_60" data-name="Path 60" d="M210.6,152.3a.468.468,0,0,0-.553.366l-.047.23a.469.469,0,1,0,.919.187l.047-.23A.469.469,0,0,0,210.6,152.3Z" transform="translate(-209.993 -152.292)"/>
    </g>
  </g>
  <g id="Group_108" data-name="Group 108" transform="translate(9.188 10.354)">
    <g id="Group_107" data-name="Group 107">
      <path id="Path_61" data-name="Path 61" d="M196.618,220.892a.469.469,0,0,0-.553.366l-.047.23a.469.469,0,1,0,.919.187l.047-.23A.469.469,0,0,0,196.618,220.892Z" transform="translate(-196.008 -220.882)"/>
    </g>
  </g>
  <g id="Group_110" data-name="Group 110" transform="translate(9.516 8.746)">
    <g id="Group_109" data-name="Group 109">
      <path id="Path_62" data-name="Path 62" d="M203.611,186.6a.469.469,0,0,0-.553.366l-.047.23a.469.469,0,1,0,.919.187l.047-.23A.469.469,0,0,0,203.611,186.6Z" transform="translate(-203.001 -186.588)"/>
    </g>
  </g>
</svg>
