<svg xmlns="http://www.w3.org/2000/svg" width="24" height="21.468" viewBox="0 0 24 21.468">
  <g id="_2898325701579060833" data-name="2898325701579060833" transform="translate(0 -27.005)">
    <g id="Group_112" data-name="Group 112" transform="translate(0 27.005)">
      <g id="Group_111" data-name="Group 111" transform="translate(0 0)">
        <path id="Path_63" data-name="Path 63" d="M22.594,36.688V31.226a4.224,4.224,0,0,0-4.219-4.219h-4.43a.469.469,0,1,0,0,.937h4.43a3.285,3.285,0,0,1,3.281,3.281v4.969a3.453,3.453,0,0,0-1.125-.188h-.094V33.319a1.815,1.815,0,0,0-1.813-1.813H13.344A1.808,1.808,0,0,0,12,32.1a1.808,1.808,0,0,0-1.344-.6H5.375a1.815,1.815,0,0,0-1.813,1.812v2.687H3.469a3.453,3.453,0,0,0-1.125.188V31.226a3.285,3.285,0,0,1,3.281-3.281h4.523a.469.469,0,1,0,0-.937H5.625a4.224,4.224,0,0,0-4.219,4.219v5.462A3.466,3.466,0,0,0,0,39.475v6a.469.469,0,0,0,.469.469h.937v2.062a.469.469,0,0,0,.469.469H4.407a.469.469,0,0,0,.469-.469V45.944H19.124v2.062a.469.469,0,0,0,.469.469h2.532a.469.469,0,0,0,.469-.469V45.944h.938A.469.469,0,0,0,24,45.475v-6A3.466,3.466,0,0,0,22.594,36.688ZM12.469,33.319a.876.876,0,0,1,.875-.875h5.281a.876.876,0,0,1,.875.875v2.687H12.469Zm-7.969,0a.876.876,0,0,1,.875-.875h5.281a.876.876,0,0,1,.875.875v2.687H4.5ZM3.938,47.538H2.344V45.944H3.938Zm17.718,0H20.062V45.944h1.594Zm1.406-4.781H4.309a.469.469,0,0,0,0,.938H23.062v1.312H.937V39.475a2.534,2.534,0,0,1,2.531-2.531H20.531a2.534,2.534,0,0,1,2.531,2.531Z" transform="translate(0 -27.007)"/>
      </g>
    </g>
    <g id="Group_114" data-name="Group 114" transform="translate(11.531 27.005)">
      <g id="Group_113" data-name="Group 113" transform="translate(0 0)">
        <path id="Path_64" data-name="Path 64" d="M246.8,27.142a.469.469,0,1,0,.137.331A.472.472,0,0,0,246.8,27.142Z" transform="translate(-246 -27.005)"/>
      </g>
    </g>
    <g id="Group_116" data-name="Group 116" transform="translate(1.972 42.754)">
      <g id="Group_115" data-name="Group 115" transform="translate(0 0)">
        <path id="Path_65" data-name="Path 65" d="M42.88,363.131a.469.469,0,1,0,.137.331A.472.472,0,0,0,42.88,363.131Z" transform="translate(-42.08 -362.994)"/>
      </g>
    </g>
  </g>
</svg>
