<svg id="car" xmlns="http://www.w3.org/2000/svg" width="29.028" height="27.674" viewBox="0 0 29.028 27.674">
  <g id="Group_59" data-name="Group 59" transform="translate(6.457 21.455)">
    <g id="Group_58" data-name="Group 58" transform="translate(0 0)">
      <path id="Path_63" data-name="Path 63" d="M117.295,392.338l-.293-1.01a.678.678,0,0,0-.477-.465l-1.794-.469a.675.675,0,0,0-.839.744l.136,1a.671.671,0,0,0,.507.564l1.951.481a.673.673,0,0,0,.7-.25A.668.668,0,0,0,117.295,392.338Zm-2.463-.416-.092-.671,1.492.39.2.675Z" transform="translate(-113.885 -390.372)"/>
    </g>
  </g>
  <g id="Group_61" data-name="Group 61" transform="translate(19.138 21.455)">
    <g id="Group_60" data-name="Group 60" transform="translate(0 0)">
      <path id="Path_64" data-name="Path 64" d="M340.821,390.6a.673.673,0,0,0-.679-.209l-1.794.469a.678.678,0,0,0-.477.465l-.293,1.01a.669.669,0,0,0,.108.593.678.678,0,0,0,.539.27h0a.681.681,0,0,0,.163-.02l1.951-.481a.671.671,0,0,0,.507-.564l.136-1A.674.674,0,0,0,340.821,390.6Zm-.781,1.319-1.6.394.2-.675,1.492-.39Z" transform="translate(-337.549 -390.372)"/>
    </g>
  </g>
  <g id="Group_63" data-name="Group 63" transform="translate(3.898 12.447)">
    <g id="Group_62" data-name="Group 62" transform="translate(0 0)">
      <path id="Path_65" data-name="Path 65" d="M89.1,235.438h-1.06a.782.782,0,0,0-.781.781v.178l-1.162-3.661a1.785,1.785,0,0,0-1.707-1.249H74.364a1.785,1.785,0,0,0-1.707,1.249l-1.305,4.113-.027-.035a.779.779,0,0,0,.055-.288v-.307a.782.782,0,0,0-.781-.781h-1.06a.782.782,0,0,0-.781.781v.307a.782.782,0,0,0,.781.781H70.6l.059,0,.229.293a2.747,2.747,0,0,0-.868,2v3.371a1.488,1.488,0,0,0,1.017,1.41v1.078a1.255,1.255,0,0,0,1.253,1.253h1.245a1.255,1.255,0,0,0,1.253-1.253v-1h9.176v1a1.255,1.255,0,0,0,1.253,1.253h1.245a1.255,1.255,0,0,0,1.253-1.253v-1.078a1.488,1.488,0,0,0,1.017-1.41V239.6a2.749,2.749,0,0,0-.935-2.066l.181-.231.059,0H89.1a.782.782,0,0,0,.781-.781v-.307A.782.782,0,0,0,89.1,235.438ZM70.553,236.48h-.968v-.216h.968Zm2.891-3.494a.962.962,0,0,1,.92-.673H84.388a.962.962,0,0,1,.92.673l1.244,3.92h0l-.007,0-.034-.007h0l-.05-.01-.036-.006-.038-.006-.019,0-.043-.005-.05-.006h-.006l-.019,0-.018,0-.044,0L85,233.084a.637.637,0,0,0-.609-.446H74.364a.637.637,0,0,0-.61.447l-1.186,3.768h-.011l-.049,0-.019,0-.1.013-.011,0h0l-.041.006-.087.016-.033.006-.009,0h0Zm11.868,3.86H73.437l1.064-3.381H84.25Zm-13.2.944.007,0,.021-.007.092-.03.028-.008.006,0,.093-.023.027-.006q.056-.012.113-.02l.028,0,.095-.01h.034c.04,0,.08,0,.12,0h13.2c.04,0,.08,0,.12,0h.034l.095.01.027,0c.038.005.076.012.113.02l.027.006.093.023.007,0,.027.008.093.03.021.007.007,0,.068.027a3.2,3.2,0,0,1-3.02,2.123H75.063a3.2,3.2,0,0,1-3.02-2.123Zm1.851,7.67a.428.428,0,0,1-.427.427H72.289a.428.428,0,0,1-.427-.427v-1h2.1Zm1.68-1.83v-.392a.507.507,0,0,1,.506-.506H82.6a.507.507,0,0,1,.506.506v.392Zm11.248,1.83a.428.428,0,0,1-.427.427H85.217a.428.428,0,0,1-.427-.427v-1h2.1Zm1.017-5.859v3.371a.66.66,0,0,1-.614.658h-.01l-.025,0h-3.32v-.394A1.334,1.334,0,0,0,82.6,241.9H76.148a1.334,1.334,0,0,0-1.333,1.333v.394H71.507l-.037,0h-.01a.66.66,0,0,1-.614-.658V239.6a1.922,1.922,0,0,1,.5-1.3,4.029,4.029,0,0,0,3.716,2.462h8.626A4.029,4.029,0,0,0,87.4,238.3,1.922,1.922,0,0,1,87.906,239.6Zm1.146-3.121h-.968v-.216h.968Z" transform="translate(-68.758 -231.486)"/>
    </g>
  </g>
  <g id="Group_65" data-name="Group 65" transform="translate(0 0)">
    <g id="Group_64" data-name="Group 64" transform="translate(0 0)">
      <path id="Path_66" data-name="Path 66" d="M28.714,18.529,14.589,12.015a.778.778,0,0,0-.328-.072.789.789,0,0,0-.338.077L.308,18.531A.544.544,0,0,0,0,19.019v1.364a.542.542,0,0,0,.347.5V39.009a.609.609,0,0,0,.608.608H3.14a.609.609,0,0,0,.608-.608V22.567H25.281V39.009a.609.609,0,0,0,.608.608h2.185a.609.609,0,0,0,.608-.608V20.888a.542.542,0,0,0,.347-.5V19.02A.543.543,0,0,0,28.714,18.529ZM2.921,22.154V38.791H1.173V20.925H2.921v1.229Zm22.36-.413H3.748v-.816H25.281Zm2.575,17.05H26.107V20.925h1.748ZM28.2,20.1H.826v-.9l13.435-6.425L28.2,19.2Z" transform="translate(0 -11.943)"/>
    </g>
  </g>
</svg>
