<svg id="mail" xmlns="http://www.w3.org/2000/svg" width="14.853" height="10.583" viewBox="0 0 14.853 10.583">
  <path id="Path_45" data-name="Path 45" d="M164.451,48.856c0-.017.012-.033.011-.05l-4.533,4.367,4.527,4.228c0-.03-.005-.061-.005-.091Z" transform="translate(-149.609 -47.792)" fill="#6e6e6e"/>
  <path id="Path_46" data-name="Path 46" d="M19.928,126.9l-1.85,1.78a.484.484,0,0,1-.665.005l-1.845-1.72-4.557,4.392a1.05,1.05,0,0,0,.354.071H24.119a1.049,1.049,0,0,0,.509-.14Z" transform="translate(-10.3 -120.847)" fill="#6e6e6e"/>
  <path id="Path_47" data-name="Path 47" d="M13.171,39.9l6.917-6.663a1.048,1.048,0,0,0-.534-.156H6.8a1.051,1.051,0,0,0-.669.249Z" transform="translate(-5.734 -33.085)" fill="#6e6e6e"/>
  <path id="Path_48" data-name="Path 48" d="M0,52.1v8.291a1.053,1.053,0,0,0,.046.275l4.5-4.333Z" transform="translate(0 -50.873)" fill="#6e6e6e"/>
</svg>
