<svg id="marker" xmlns="http://www.w3.org/2000/svg" width="7.052" height="10.909" viewBox="0 0 7.052 10.909">
  <path id="Path_24" data-name="Path 24" d="M82.8,0h-.016a3.472,3.472,0,0,0-3.518,3.415,10.547,10.547,0,0,0,1.721,4.842,26.844,26.844,0,0,0,1.713,2.6.128.128,0,0,0,.1.05h0a.128.128,0,0,0,.1-.055c.008-.012.861-1.262,1.7-2.791a11.242,11.242,0,0,0,1.71-4.648A3.472,3.472,0,0,0,82.8,0Zm1.624,3.5a1.633,1.633,0,0,1-3.264,0,1.633,1.633,0,0,1,3.264,0Z" transform="translate(-79.268)" fill="#949494"/>
</svg>
