<svg xmlns="http://www.w3.org/2000/svg" width="133" height="114.578" viewBox="0 0 133 114.578">
  <g id="move" transform="translate(1 -35)">
    <g id="Group_6" data-name="Group 6" transform="translate(53.219 36)">
      <g id="Group_5" data-name="Group 5">
        <path id="Path_8" data-name="Path 8" d="M238.7,36H210.047a2.047,2.047,0,0,0,0,4.094H238.7a2.047,2.047,0,0,0,0-4.094Z" transform="translate(-208 -36)" fill="#fff" stroke="#005493" stroke-width="2"/>
      </g>
    </g>
    <g id="Group_8" data-name="Group 8" transform="translate(71.641 36)">
      <g id="Group_7" data-name="Group 7">
        <path id="Path_9" data-name="Path 9" d="M282.047,36A2.046,2.046,0,0,0,280,38.047V48.281a2.047,2.047,0,0,0,4.094,0V38.047A2.046,2.046,0,0,0,282.047,36Z" transform="translate(-280 -36)" fill="#fff" stroke="#005493" stroke-width="2"/>
      </g>
    </g>
    <g id="Group_10" data-name="Group 10" transform="translate(63.453 46.234)">
      <g id="Group_9" data-name="Group 9">
        <path id="Path_10" data-name="Path 10" d="M258.234,76h-8.187a2.047,2.047,0,0,0,0,4.094h8.188a2.047,2.047,0,0,0,0-4.094Z" transform="translate(-248 -76)" fill="#fff" stroke="#005493" stroke-width="2"/>
      </g>
    </g>
    <g id="Group_12" data-name="Group 12" transform="translate(63.453 36)">
      <g id="Group_11" data-name="Group 11">
        <path id="Path_11" data-name="Path 11" d="M250.047,36A2.046,2.046,0,0,0,248,38.047V48.281a2.047,2.047,0,0,0,4.094,0V38.047A2.046,2.046,0,0,0,250.047,36Z" transform="translate(-248 -36)" fill="#fff" stroke="#005493" stroke-width="2"/>
      </g>
    </g>
    <g id="Group_14" data-name="Group 14" transform="translate(28.656 76.938)">
      <g id="Group_13" data-name="Group 13">
        <path id="Path_12" data-name="Path 12" d="M138.609,196H114.047a2.047,2.047,0,0,0,0,4.094h24.563a2.047,2.047,0,0,0,0-4.094Z" transform="translate(-112 -196)" fill="#fff" stroke="#005493" stroke-width="2"/>
      </g>
    </g>
    <g id="Group_16" data-name="Group 16" transform="translate(81.875 72.844)">
      <g id="Group_15" data-name="Group 15">
        <path id="Path_13" data-name="Path 13" d="M322.047,180A2.046,2.046,0,0,0,320,182.047v34.8a2.047,2.047,0,0,0,4.094,0v-34.8A2.046,2.046,0,0,0,322.047,180Z" transform="translate(-320 -180)" fill="#fff" stroke="#005493" stroke-width="2"/>
      </g>
    </g>
    <g id="Group_18" data-name="Group 18" transform="translate(120.809 124.016)">
      <g id="Group_17" data-name="Group 17">
        <path id="Path_14" data-name="Path 14" d="M480.313,380h-6.1a2.047,2.047,0,0,0,0,4.094h6.1a2.047,2.047,0,0,0,0-4.094Z" transform="translate(-472.168 -380)" fill="#fff" stroke="#005493" stroke-width="2"/>
      </g>
    </g>
    <g id="Group_20" data-name="Group 20" transform="translate(126.906 124.016)">
      <g id="Group_19" data-name="Group 19">
        <path id="Path_15" data-name="Path 15" d="M498.047,380A2.045,2.045,0,0,0,496,382.047v8.188a2.047,2.047,0,0,0,4.094,0v-8.187A2.045,2.045,0,0,0,498.047,380Z" transform="translate(-496 -380)" fill="#fff" stroke="#005493" stroke-width="2"/>
      </g>
    </g>
    <g id="Group_22" data-name="Group 22" transform="translate(4.094 132.203)">
      <g id="Group_21" data-name="Group 21">
        <path id="Path_16" data-name="Path 16" d="M32.375,412h-.006l-14.328.043a2.047,2.047,0,0,0,.006,4.094h.006l14.328-.043A2.047,2.047,0,0,0,32.375,412Z" transform="translate(-16 -412)" fill="#fff" stroke="#005493" stroke-width="2"/>
      </g>
    </g>
    <g id="Group_24" data-name="Group 24" transform="translate(122.813 113.781)">
      <g id="Group_23" data-name="Group 23">
        <path id="Path_17" data-name="Path 17" d="M484.094,340h-2.047a2.047,2.047,0,0,0,0,4.094h2.047a2.047,2.047,0,0,0,0-4.094Z" transform="translate(-480 -340)" fill="#fff" stroke="#005493" stroke-width="2"/>
      </g>
    </g>
    <g id="Group_26" data-name="Group 26" transform="translate(124.859 99.453)">
      <g id="Group_25" data-name="Group 25">
        <path id="Path_18" data-name="Path 18" d="M490.047,284A2.045,2.045,0,0,0,488,286.047v24.563a2.047,2.047,0,0,0,4.094,0V286.047A2.045,2.045,0,0,0,490.047,284Z" transform="translate(-488 -284)" fill="#fff" stroke="#005493" stroke-width="2"/>
      </g>
    </g>
    <g id="Group_28" data-name="Group 28" transform="translate(81.875 72.844)">
      <g id="Group_27" data-name="Group 27">
        <path id="Path_19" data-name="Path 19" d="M352.75,180h-30.7a2.047,2.047,0,0,0,0,4.094h30.7a2.047,2.047,0,0,0,0-4.094Z" transform="translate(-320 -180)" fill="#fff" stroke="#005493" stroke-width="2"/>
      </g>
    </g>
    <g id="Group_30" data-name="Group 30" transform="translate(112.578 72.844)">
      <g id="Group_29" data-name="Group 29">
        <path id="Path_20" data-name="Path 20" d="M456.186,207.8,443.9,181.189a2.047,2.047,0,0,0-3.717,1.715l12.281,26.609a2.048,2.048,0,0,0,1.861,1.189,2.047,2.047,0,0,0,1.857-2.9Z" transform="translate(-439.999 -180)" fill="#fff" stroke="#005493" stroke-width="2"/>
      </g>
    </g>
    <g id="Group_32" data-name="Group 32" transform="translate(4.094 124.016)">
      <g id="Group_31" data-name="Group 31">
        <path id="Path_21" data-name="Path 21" d="M18.047,380A2.045,2.045,0,0,0,16,382.047v8.316a2.047,2.047,0,0,0,4.094,0v-8.316A2.045,2.045,0,0,0,18.047,380Z" transform="translate(-16 -380)" fill="#fff" stroke="#005493" stroke-width="2"/>
      </g>
    </g>
    <g id="Group_34" data-name="Group 34" transform="translate(0 97.406)">
      <g id="Group_33" data-name="Group 33">
        <path id="Path_22" data-name="Path 22" d="M2.047,276A2.045,2.045,0,0,0,0,278.047v26.609a2.047,2.047,0,0,0,4.094,0V278.047A2.045,2.045,0,0,0,2.047,276Z" transform="translate(0 -276)" fill="#fff" stroke="#005493" stroke-width="2"/>
      </g>
    </g>
    <g id="Group_36" data-name="Group 36" transform="translate(0 97.406)">
      <g id="Group_35" data-name="Group 35">
        <path id="Path_23" data-name="Path 23" d="M83.922,276H2.047a2.047,2.047,0,0,0,0,4.094H83.922a2.047,2.047,0,0,0,0-4.094Z" transform="translate(0 -276)" fill="#fff" stroke="#005493" stroke-width="2"/>
      </g>
    </g>
    <g id="Group_38" data-name="Group 38" transform="translate(0 124.016)">
      <g id="Group_37" data-name="Group 37">
        <path id="Path_24" data-name="Path 24" d="M12.281,380H2.047a2.047,2.047,0,0,0,0,4.094H12.281a2.047,2.047,0,0,0,0-4.094Z" transform="translate(0 -380)" fill="#fff" stroke="#005493" stroke-width="2"/>
      </g>
    </g>
    <g id="Group_40" data-name="Group 40" transform="translate(18.422 119.922)">
      <g id="Group_39" data-name="Group 39">
        <path id="Path_25" data-name="Path 25" d="M86.328,364a14.328,14.328,0,1,0,14.328,14.328A14.346,14.346,0,0,0,86.328,364Zm0,24.563a10.234,10.234,0,1,1,10.234-10.234A10.246,10.246,0,0,1,86.328,388.563Z" transform="translate(-72 -364)" fill="#fff" stroke="#005493" stroke-width="2"/>
      </g>
    </g>
    <g id="Group_42" data-name="Group 42" transform="translate(26.609 128.109)">
      <g id="Group_41" data-name="Group 41">
        <path id="Path_26" data-name="Path 26" d="M110.141,396a6.141,6.141,0,1,0,6.141,6.141A6.148,6.148,0,0,0,110.141,396Zm0,8.188a2.047,2.047,0,1,1,2.047-2.047A2.048,2.048,0,0,1,110.141,404.188Z" transform="translate(-104 -396)" fill="#fff" stroke="#005493" stroke-width="2"/>
      </g>
    </g>
    <g id="Group_44" data-name="Group 44" transform="translate(94.156 128.109)">
      <g id="Group_43" data-name="Group 43">
        <path id="Path_27" data-name="Path 27" d="M374.141,396a6.141,6.141,0,1,0,6.141,6.141A6.148,6.148,0,0,0,374.141,396Zm0,8.188a2.047,2.047,0,1,1,2.047-2.047A2.048,2.048,0,0,1,374.141,404.188Z" transform="translate(-368 -396)" fill="#fff" stroke="#005493" stroke-width="2"/>
      </g>
    </g>
    <g id="Group_46" data-name="Group 46" transform="translate(85.969 119.922)">
      <g id="Group_45" data-name="Group 45">
        <path id="Path_28" data-name="Path 28" d="M350.328,364a14.328,14.328,0,1,0,14.328,14.328A14.346,14.346,0,0,0,350.328,364Zm0,24.563a10.234,10.234,0,1,1,10.234-10.234A10.246,10.246,0,0,1,350.328,388.563Z" transform="translate(-336 -364)" fill="#fff" stroke="#005493" stroke-width="2"/>
      </g>
    </g>
    <g id="Group_48" data-name="Group 48" transform="translate(42.984 132.203)">
      <g id="Group_47" data-name="Group 47">
        <path id="Path_29" data-name="Path 29" d="M213.082,412H170.047a2.047,2.047,0,0,0,0,4.094h43.036a2.047,2.047,0,1,0,0-4.094Z" transform="translate(-168 -412)" fill="#fff" stroke="#005493" stroke-width="2"/>
      </g>
    </g>
    <g id="Group_50" data-name="Group 50" transform="translate(110.531 132.203)">
      <g id="Group_49" data-name="Group 49">
        <path id="Path_30" data-name="Path 30" d="M450.422,412H434.047a2.047,2.047,0,0,0,0,4.094h16.375a2.047,2.047,0,0,0,0-4.094Z" transform="translate(-432 -412)" fill="#fff" stroke="#005493" stroke-width="2"/>
      </g>
    </g>
    <g id="Group_52" data-name="Group 52" transform="translate(100.297 99.453)">
      <g id="Group_51" data-name="Group 51">
        <path id="Path_31" data-name="Path 31" d="M418.609,284H394.047a2.047,2.047,0,0,0,0,4.094h24.563a2.047,2.047,0,0,0,0-4.094Z" transform="translate(-392 -284)" fill="#fff" stroke="#005493" stroke-width="2"/>
      </g>
    </g>
    <g id="Group_54" data-name="Group 54" transform="translate(92.109 91.266)">
      <g id="Group_53" data-name="Group 53">
        <path id="Path_32" data-name="Path 32" d="M370.234,260.188a6.148,6.148,0,0,1-6.141-6.141,2.047,2.047,0,0,0-4.094,0,10.246,10.246,0,0,0,10.234,10.234,2.047,2.047,0,0,0,0-4.094Z" transform="translate(-360 -252)" fill="#fff" stroke="#005493" stroke-width="2"/>
      </g>
    </g>
    <g id="Group_56" data-name="Group 56" transform="translate(92.109 72.844)">
      <g id="Group_55" data-name="Group 55">
        <path id="Path_33" data-name="Path 33" d="M362.047,180A2.046,2.046,0,0,0,360,182.047v18.422a2.047,2.047,0,0,0,4.094,0V182.047A2.046,2.046,0,0,0,362.047,180Z" transform="translate(-360 -180)" fill="#fff" stroke="#005493" stroke-width="2"/>
      </g>
    </g>
    <g id="Group_58" data-name="Group 58" transform="translate(81.875 36)">
      <g id="Group_57" data-name="Group 57">
        <path id="Path_34" data-name="Path 34" d="M322.047,36A2.046,2.046,0,0,0,320,38.047V99.453a2.047,2.047,0,0,0,4.094,0V38.047A2.046,2.046,0,0,0,322.047,36Z" transform="translate(-320 -36)" fill="#fff" stroke="#005493" stroke-width="2"/>
      </g>
    </g>
    <g id="Group_60" data-name="Group 60" transform="translate(53.219 36)">
      <g id="Group_59" data-name="Group 59">
        <path id="Path_35" data-name="Path 35" d="M210.047,36A2.046,2.046,0,0,0,208,38.047V99.453a2.047,2.047,0,0,0,4.094,0V38.047A2.046,2.046,0,0,0,210.047,36Z" transform="translate(-208 -36)" fill="#fff" stroke="#005493" stroke-width="2"/>
      </g>
    </g>
    <g id="Group_62" data-name="Group 62" transform="translate(28.656 52.375)">
      <g id="Group_61" data-name="Group 61">
        <path id="Path_36" data-name="Path 36" d="M114.047,100A2.046,2.046,0,0,0,112,102.047v45.031a2.047,2.047,0,0,0,4.094,0V102.047A2.046,2.046,0,0,0,114.047,100Z" transform="translate(-112 -100)" fill="#fff" stroke="#005493" stroke-width="2"/>
      </g>
    </g>
    <g id="Group_64" data-name="Group 64" transform="translate(40.938 76.938)">
      <g id="Group_63" data-name="Group 63">
        <path id="Path_37" data-name="Path 37" d="M162.047,196A2.046,2.046,0,0,0,160,198.047v6.141a2.047,2.047,0,0,0,4.094,0v-6.141A2.046,2.046,0,0,0,162.047,196Z" transform="translate(-160 -196)" fill="#fff" stroke="#005493" stroke-width="2"/>
      </g>
    </g>
    <g id="Group_66" data-name="Group 66" transform="translate(28.656 52.375)">
      <g id="Group_65" data-name="Group 65">
        <path id="Path_38" data-name="Path 38" d="M138.609,100H114.047a2.047,2.047,0,0,0,0,4.094h24.563a2.047,2.047,0,0,0,0-4.094Z" transform="translate(-112 -100)" fill="#fff" stroke="#005493" stroke-width="2"/>
      </g>
    </g>
    <g id="Group_68" data-name="Group 68" transform="translate(40.938 52.375)">
      <g id="Group_67" data-name="Group 67">
        <path id="Path_39" data-name="Path 39" d="M162.047,100A2.046,2.046,0,0,0,160,102.047v4.094a2.047,2.047,0,0,0,4.094,0v-4.094A2.046,2.046,0,0,0,162.047,100Z" transform="translate(-160 -100)" fill="#fff" stroke="#005493" stroke-width="2"/>
      </g>
    </g>
    <g id="Group_70" data-name="Group 70" transform="translate(4.094 66.703)">
      <g id="Group_69" data-name="Group 69">
        <path id="Path_40" data-name="Path 40" d="M18.047,156A2.046,2.046,0,0,0,16,158.047v30.7a2.047,2.047,0,0,0,4.094,0v-30.7A2.046,2.046,0,0,0,18.047,156Z" transform="translate(-16 -156)" fill="#fff" stroke="#005493" stroke-width="2"/>
      </g>
    </g>
    <g id="Group_72" data-name="Group 72" transform="translate(4.094 66.703)">
      <g id="Group_71" data-name="Group 71">
        <path id="Path_41" data-name="Path 41" d="M42.609,156H18.047a2.047,2.047,0,0,0,0,4.094H42.609a2.047,2.047,0,0,0,0-4.094Z" transform="translate(-16 -156)" fill="#fff" stroke="#005493" stroke-width="2"/>
      </g>
    </g>
    <g id="Group_74" data-name="Group 74" transform="translate(12.281 66.703)">
      <g id="Group_73" data-name="Group 73">
        <path id="Path_42" data-name="Path 42" d="M50.047,156A2.046,2.046,0,0,0,48,158.047v6.141a2.047,2.047,0,0,0,4.094,0v-6.141A2.046,2.046,0,0,0,50.047,156Z" transform="translate(-48 -156)" fill="#fff" stroke="#005493" stroke-width="2"/>
      </g>
    </g>
    <g id="Group_76" data-name="Group 76" transform="translate(12.281 72.844)">
      <g id="Group_75" data-name="Group 75">
        <path id="Path_43" data-name="Path 43" d="M58.234,180H50.047a2.047,2.047,0,0,0,0,4.094h8.188a2.047,2.047,0,0,0,0-4.094Z" transform="translate(-48 -180)" fill="#fff" stroke="#005493" stroke-width="2"/>
      </g>
    </g>
    <g id="Group_78" data-name="Group 78" transform="translate(20.469 66.703)">
      <g id="Group_77" data-name="Group 77">
        <path id="Path_44" data-name="Path 44" d="M82.047,156A2.046,2.046,0,0,0,80,158.047v6.141a2.047,2.047,0,0,0,4.094,0v-6.141A2.046,2.046,0,0,0,82.047,156Z" transform="translate(-80 -156)" fill="#fff" stroke="#005493" stroke-width="2"/>
      </g>
    </g>
  </g>
</svg>
