<svg id="phone" xmlns="http://www.w3.org/2000/svg" width="15.413" height="15.413" viewBox="0 0 15.413 15.413">
  <g id="Group_48" data-name="Group 48" transform="translate(11.357 9.759)">
    <g id="Group_47" data-name="Group 47">
      <path id="Path_42" data-name="Path 42" d="M364.619,303.444l-1.708-1.709a1.238,1.238,0,0,0-1.709,0l-.285.285,3.417,3.417.285-.285A1.207,1.207,0,0,0,364.619,303.444Z" transform="translate(-360.917 -301.393)" fill="#6e6e6e"/>
    </g>
  </g>
  <g id="Group_50" data-name="Group 50" transform="translate(0 1.22)">
    <g id="Group_49" data-name="Group 49" transform="translate(0)">
      <path id="Path_43" data-name="Path 43" d="M10.317,54.567a1.027,1.027,0,0,1-1.361-.07l-3.828-3.83a1.027,1.027,0,0,1-.07-1.361L1.2,45.443a4.927,4.927,0,0,0,.237,6.69L7.49,58.193a4.9,4.9,0,0,0,6.691.237Z" transform="translate(0 -45.443)" fill="#6e6e6e"/>
    </g>
  </g>
  <g id="Group_52" data-name="Group 52" transform="translate(1.6 0)">
    <g id="Group_51" data-name="Group 51">
      <path id="Path_44" data-name="Path 44" d="M63.314,2.051,61.606.342a1.238,1.238,0,0,0-1.709,0l-.285.285,3.417,3.417.285-.285A1.207,1.207,0,0,0,63.314,2.051Z" transform="translate(-59.612 0)" fill="#6e6e6e"/>
    </g>
  </g>
</svg>
