<svg xmlns="http://www.w3.org/2000/svg" width="78.324" height="78.83" viewBox="0 0 78.324 78.83">
  <g id="Layer_1" transform="translate(-0.25 -0.171)">
    <path id="Path_47" data-name="Path 47" d="M1,12.645v1.186A73.225,73.225,0,0,0,35.947,76.015l3.465,2.108,3.465-2.109A73.221,73.221,0,0,0,77.824,13.831V12.645L39.412.955ZM41.214,73.282l-1.8,1.1-1.8-1.1a70.022,70.022,0,0,1-33.4-58.268L39.412,4.3l35.2,10.712A70.022,70.022,0,0,1,41.214,73.282Z" fill="#fff" stroke="#005493" stroke-width="1.5"/>
    <path id="Path_48" data-name="Path 48" d="M16.556,32.5l-2.263,2.263L26.628,47.1,58.169,15.556l-2.263-2.263L26.628,42.571Z" transform="translate(7.982 7.409)" fill="#fff" stroke="#005493" stroke-width="1.5"/>
  </g>
</svg>
