<svg id="scheme" xmlns="http://www.w3.org/2000/svg" width="26.458" height="26.458" viewBox="0 0 26.458 26.458">
  <g id="Group_67" data-name="Group 67" transform="translate(2.01 1.99)">
    <g id="Group_66" data-name="Group 66">
      <path id="Path_67" data-name="Path 67" d="M62.873,40.917a.477.477,0,0,0-.477.477V62.031H58.578V60.955h2.285a.478.478,0,0,0,.477-.477V52.035a.478.478,0,0,0-.477-.477h-2.04V50.5h2.04a.478.478,0,0,0,.477-.477V39a.477.477,0,0,0-.477-.477H51.127a.477.477,0,0,0-.477.477v6.917H49.594V39a.477.477,0,0,0-.477-.477H39.38A.477.477,0,0,0,38.9,39V50.025a.477.477,0,0,0,.477.477h1.727a.477.477,0,0,0,0-.955H39.858V48.457h2.026a3.067,3.067,0,0,0,3.064-3.063v-5.92h3.691V46.39a.477.477,0,0,0,.477.477h2.01a.477.477,0,0,0,.477-.477V39.473h8.781V40.7H59.124a.477.477,0,0,0-.477.477v6.558a.477.477,0,0,0,.477.477h1.261v1.333h-2.04a.477.477,0,0,0-.477.477v2.01a.477.477,0,0,0,.477.477h2.04V60H58.1a.477.477,0,0,0-.477.477v2.03a.477.477,0,0,0,.477.477h4.773a.477.477,0,0,0,.477-.477V41.394A.477.477,0,0,0,62.873,40.917Zm-18.88,4.476h0A2.111,2.111,0,0,1,41.884,47.5H39.858V39.473h.348v.309a.477.477,0,0,0,.955,0v-.309h.286v1.264a.477.477,0,0,0,.955,0V39.473h.286v.309a.477.477,0,0,0,.955,0v-.309h.348v5.92Zm16.393,1.866H59.6v-5.6h.783Z" transform="translate(-38.903 -38.518)"/>
    </g>
  </g>
  <g id="Group_69" data-name="Group 69" transform="translate(0 0)">
    <g id="Group_68" data-name="Group 68" transform="translate(0 0)">
      <path id="Path_68" data-name="Path 68" d="M25.981,0H.477A.477.477,0,0,0,0,.478v25.5a.477.477,0,0,0,.477.477H17.362a.477.477,0,0,0,.477-.477v-2.03a.477.477,0,0,0-.477-.477h-2.65V18.825a.477.477,0,0,0-.477-.477h-2.01a.477.477,0,0,0-.477.477v4.649H2.965V22.38H4.417A1.315,1.315,0,0,0,5.5,21.81a3.026,3.026,0,0,0,1.394.33,2.536,2.536,0,0,0,2.7-2.321,2.075,2.075,0,0,0-.314-1.09.477.477,0,1,0-.812.5,1.106,1.106,0,0,1,.172.588,1.593,1.593,0,0,1-1.746,1.366,2.038,2.038,0,0,1-1.161-.349V18.8a2.038,2.038,0,0,1,1.161-.349,2.11,2.11,0,0,1,.79.149.477.477,0,1,0,.356-.886A3.06,3.06,0,0,0,6.894,17.5a3.025,3.025,0,0,0-1.394.331,1.314,1.314,0,0,0-1.083-.57H2.965V15.986H16.144a.477.477,0,0,0,.477-.477V13.5a.477.477,0,0,0-.477-.477H5.742a.477.477,0,0,0,0,.955h9.924v1.055H2.488a.477.477,0,0,0-.477.477v8.443a.477.477,0,0,0,.477.477h9.736a.477.477,0,0,0,.477-.477V19.3h1.055v4.649a.477.477,0,0,0,.477.477h2.65V25.5H.955V.956H25.5V3.17a.477.477,0,1,0,.955,0V.478A.477.477,0,0,0,25.981,0ZM2.965,18.214H4.417a.361.361,0,0,1,.361.361v2.489a.361.361,0,0,1-.361.361H2.965Z" transform="translate(0 -0.001)"/>
    </g>
  </g>
  <g id="Group_71" data-name="Group 71" transform="translate(15.957 4.174)">
    <g id="Group_70" data-name="Group 70">
      <path id="Path_69" data-name="Path 69" d="M312.788,80.77h-3.525a.478.478,0,0,0-.478.477v6.558a.478.478,0,0,0,.478.477h3.525a.478.478,0,0,0,.478-.477V81.247A.478.478,0,0,0,312.788,80.77Zm-.477,5H311.4V83.285h.911Zm0-3.438h-1.388a.477.477,0,0,0-.477.477v3.438a.477.477,0,0,0,.477.477h1.388v.6h-2.57v-5.6h2.57Z" transform="translate(-308.785 -80.77)"/>
    </g>
  </g>
  <g id="Group_73" data-name="Group 73" transform="translate(6.283 19.341)">
    <g id="Group_72" data-name="Group 72">
      <circle id="Ellipse_12" data-name="Ellipse 12" cx="0.477" cy="0.477" r="0.477"/>
    </g>
  </g>
  <g id="Group_75" data-name="Group 75" transform="translate(4.555 8.761)">
    <g id="Group_74" data-name="Group 74">
      <circle id="Ellipse_13" data-name="Ellipse 13" cx="0.477" cy="0.477" r="0.477"/>
    </g>
  </g>
</svg>
