<svg xmlns="http://www.w3.org/2000/svg" width="99.005" height="88.116" viewBox="0 0 99.005 88.116">
  <g id="wallet" transform="translate(0.6 -27.899)">
    <g id="Group_80" data-name="Group 80" transform="translate(0 28.499)">
      <g id="Group_79" data-name="Group 79">
        <path id="Path_45" data-name="Path 45" d="M93.507,64.793H92.075V45.212A9.084,9.084,0,0,0,83,36.138H43.654L17.109,28.554l-.023-.005-.023-.007-.048-.009-.074-.015-.067-.009L16.8,28.5l-.063,0h-.08l-.059,0c-.027,0-.055,0-.082.009l-.055.009c-.028,0-.055.01-.083.017l-.05.014-.083.026L16.2,28.6c-.028.011-.055.022-.082.034l-.042.021c-.027.014-.053.027-.079.043l-.04.025c-.026.016-.051.032-.075.05l-.038.029c-.023.018-.047.037-.069.056l-.037.034c-.021.02-.042.04-.062.061l-.036.041c-.018.021-.036.042-.053.064l-.035.048c-.015.021-.03.043-.044.065s-.023.038-.034.057-.024.043-.035.065-.02.043-.03.065-.019.043-.027.065-.016.047-.024.071-.011.03-.016.046,0,.015-.005.023-.005.015-.007.023l-1.638,6.554H9.075A9.084,9.084,0,0,0,0,45.181c0,.01,0,.02,0,.03V94.878a1.433,1.433,0,0,0,2.865,0V51.82a9.039,9.039,0,0,0,6.209,2.466H83.006a6.215,6.215,0,0,1,6.2,6.208v10.03H73.445c-.041,0-.083,0-.124.006s-.091.011-.135.019l-.02,0c-.037.007-.074.017-.111.028l-.024.006c-.032.01-.064.022-.1.034l-.036.013c-.026.011-.052.024-.077.036l-.05.024c-.02.01-.039.023-.058.034s-.043.025-.063.039-.027.02-.04.029-.049.035-.072.054l-.029.026c-.025.022-.05.043-.074.067s-.027.029-.04.044-.038.04-.055.061-.057.074-.083.112l0,0L64.615,82.624a1.41,1.41,0,0,0-.134.253c-.014.033-.024.066-.035.1,0,.01-.007.02-.01.03-.011.035-.019.071-.027.107,0,.009,0,.019-.007.028-.006.032-.01.064-.015.1,0,.014,0,.028-.006.041s0,.053,0,.079,0,.04,0,.061,0,.039,0,.059,0,.054,0,.082,0,.026.006.04c0,.033.008.066.015.1,0,.009,0,.018.006.027.008.036.016.072.027.108,0,.01.007.02.011.03.011.033.022.067.035.1a1.427,1.427,0,0,0,.134.253l7.64,11.46v0a1.48,1.48,0,0,0,.1.131l.036.04q.036.04.076.077l.046.042c.028.024.057.046.086.068l.04.03a1.428,1.428,0,0,0,.134.081l.035.017c.037.018.074.035.113.05l.045.017q.055.02.111.035l.046.012c.039.009.078.016.118.022l.043.007a1.44,1.44,0,0,0,.15.009H89.21v10.03A6.216,6.216,0,0,1,83,112.551H9.075a6.216,6.216,0,0,1-6.208-6.209c0-.007,0-.015,0-.022v-5.71a1.433,1.433,0,0,0-2.865,0v5.733c0,.015,0,.029,0,.044a9.084,9.084,0,0,0,9.073,9.03H83a9.084,9.084,0,0,0,9.074-9.073h0V96.312h1.432a4.3,4.3,0,0,0,4.3-4.3V69.09A4.3,4.3,0,0,0,93.507,64.793ZM17.746,31.716l25.28,7.223h0l16.943,4.841H14.731Zm71.463,22.17A9.038,9.038,0,0,0,83,51.42H9.075A6.208,6.208,0,0,1,9.075,39h3.9l-1.194,4.777h-2.7a1.433,1.433,0,1,0,0,2.865H81.089a1.433,1.433,0,0,0,0-2.865H70.4L53.683,39H83a6.216,6.216,0,0,1,6.208,6.208Zm5.729,38.128h0a1.434,1.434,0,0,1-1.432,1.432H74.214L67.529,83.418l6.686-10.029H93.507c.02,0,.04,0,.059,0a4.282,4.282,0,0,0,1.373-.245ZM93.507,70.522l-.03,0h-1.4V67.658h1.432a1.432,1.432,0,0,1,0,2.864Z" transform="translate(0 -28.499)" fill="#fff" stroke="#005493" stroke-width="1.2"/>
      </g>
    </g>
    <g id="Group_82" data-name="Group 82" transform="translate(73.926 78.165)">
      <g id="Group_81" data-name="Group 81" transform="translate(0 0)">
        <path id="Path_46" data-name="Path 46" d="M392.252,288.493a5.253,5.253,0,1,0,5.253,5.253A5.259,5.259,0,0,0,392.252,288.493Zm0,7.641a2.388,2.388,0,1,1,2.388-2.388A2.39,2.39,0,0,1,392.252,296.134Z" transform="translate(-386.999 -288.493)" fill="#fff" stroke="#005493" stroke-width="1.2"/>
      </g>
    </g>
  </g>
</svg>
